<?xml version="1.0" encoding="UTF-8"?>
<svg id="Layer_2" data-name="Layer 2" xmlns="http://www.w3.org/2000/svg" viewBox="0 0 1080 1080">
  <defs>
    <style>
      .cls-1 {
        fill: #fff;
        stroke-width: 0px;
      }
    </style>
  </defs>
  <path class="cls-1" d="M173.62,576.05h-56.64c-.92,0-1.75.55-2.12,1.39l-6.5,15.05c-2.33,5.48-3.49,10.01-3.49,13.58,0,4.73,1.91,8.22,5.73,10.46,2.06,1.22,6.88,2.16,14.46,2.82,1.19.1,2.11,1.1,2.11,2.29v.18c0,1.27-1.03,2.3-2.3,2.3h-51.58c-1.27,0-2.3-1.03-2.3-2.3v-.39c0-1.09.76-2.02,1.82-2.25,5.24-1.11,9.62-3.52,13.13-7.21,3.9-4.11,8.72-12.6,14.45-25.48l59.94-133.72c.29-.65.94-1.08,1.66-1.08h0c.72,0,1.38.43,1.67,1.09l60.44,137.45c5.81,13.12,10.59,21.39,14.33,24.79,2.45,2.23,5.77,3.65,9.97,4.26,1.14.16,1.99,1.13,1.99,2.28v.25c0,1.27-1.03,2.3-2.3,2.3h-77.12c-1.27,0-2.3-1.03-2.3-2.3h0c0-1.27,1.03-2.3,2.3-2.3h1.06c6.56,0,11.17-.91,13.83-2.74,1.83-1.33,2.74-3.24,2.74-5.73,0-1.5-.25-3.03-.75-4.61-.17-.75-1.41-3.86-3.74-9.34l-8.37-19.65c-.36-.85-1.2-1.4-2.12-1.4ZM169.51,563.61l-21.69-50.14c-.8-1.84-3.4-1.86-4.22-.02l-22.33,50.14c-.68,1.52.44,3.24,2.11,3.24h44.02c1.66,0,2.77-1.7,2.12-3.22Z"/>
  <path class="cls-1" d="M422.42,457.51v.43c0,1.06-.72,1.98-1.75,2.23-5.44,1.3-10.34,4.46-14.69,9.49-3.49,4.15-8.68,13.91-15.57,29.28l-57.57,127.71c-.37.83-1.19,1.36-2.1,1.36h-1.11c-.92,0-1.75-.55-2.12-1.39l-57.33-132.91c-6.98-16.2-11.65-25.7-14.02-28.53-2.12-2.53-5.94-4.23-11.44-5.09-1.12-.18-1.95-1.14-1.95-2.27v-.29c0-1.27,1.03-2.3,2.3-2.3h76.37c1.27,0,2.3,1.03,2.3,2.3h0c0,1.27-1.03,2.3-2.3,2.3h-.44c-7.31,0-12.29.91-14.95,2.74-1.91,1.25-2.87,3.07-2.87,5.48,0,1.5.33,3.26,1,5.29.66,2.04,2.91,7.5,6.73,16.38l33.93,79.24c.79,1.85,3.4,1.87,4.22.03l31.24-70.06c3.99-9.05,6.44-15.12,7.35-18.19.91-3.07,1.37-5.69,1.37-7.85,0-2.49-.67-4.69-1.99-6.6-1.33-1.91-3.28-3.36-5.86-4.36-3.11-1.23-7.1-1.92-11.96-2.08-1.24-.04-2.24-1.06-2.24-2.3v-.04c0-1.27,1.03-2.3,2.3-2.3h50.83c1.27,0,2.3,1.03,2.3,2.3Z"/>
  <path class="cls-1" d="M514.96,467.23v64.16c0,1.27,1.03,2.3,2.3,2.3h1.06c10.71,0,18.48-3.36,23.3-10.09,4.56-6.37,7.56-15.61,8.99-27.72.14-1.17,1.11-2.05,2.29-2.05h.36c1.27,0,2.3,1.03,2.3,2.3v83.84c0,1.27-1.03,2.3-2.3,2.3h-.38c-1.17,0-2.14-.88-2.28-2.04-1.07-8.71-3.09-15.92-6.06-21.63-3.2-6.15-6.91-10.28-11.15-12.4-3.81-1.9-9.16-2.95-16.06-3.14-1.3-.04-2.38,1.01-2.38,2.31v45.25c0,9.3.39,14.99,1.18,17.07.79,2.08,2.26,3.78,4.42,5.11,2.16,1.33,5.65,1.99,10.46,1.99h10.09c15.78,0,28.42-3.65,37.93-10.96,9.15-7.03,15.82-17.61,20.02-31.72.29-.98,1.18-1.67,2.21-1.67h.23c1.4,0,2.48,1.24,2.28,2.63l-6.95,49.08c-.16,1.14-1.13,1.98-2.28,1.98h-141.7c-1.27,0-2.3-1.03-2.3-2.3h0c0-1.27,1.03-2.3,2.3-2.3h3.3c4.9,0,8.85-.87,11.84-2.62,2.16-1.16,3.82-3.16,4.98-5.98.91-1.99,1.37-7.23,1.37-15.7v-111.13c0-7.64-.21-12.33-.62-14.08-.83-2.91-2.37-5.15-4.61-6.73-3.16-2.32-7.48-3.49-12.96-3.49h-3.3c-1.27,0-2.3-1.03-2.3-2.3h0c0-1.27,1.03-2.3,2.3-2.3h136.79c1.27,0,2.3,1.03,2.3,2.3v45.35c0,1.27-1.03,2.3-2.3,2.3h-.55c-1.09,0-2.03-.77-2.26-1.84-2.38-11.25-5.64-19.4-9.78-24.44-4.36-5.31-10.53-9.22-18.5-11.71-4.65-1.49-13.37-2.24-26.16-2.24h-15.14c-1.27,0-2.3,1.03-2.3,2.3Z"/>
  <path class="cls-1" d="M796.84,567.39l-5.86,54.69c-.13,1.17-1.11,2.06-2.29,2.06h-145.62c-1.27,0-2.3-1.03-2.3-2.3h0c0-1.27,1.03-2.3,2.3-2.3h3.3c4.9,0,8.85-.87,11.84-2.62,2.16-1.16,3.82-3.16,4.98-5.98.91-1.99,1.37-7.23,1.37-15.7v-111.13c0-8.64-.46-14.04-1.37-16.2-.91-2.16-2.76-4.05-5.54-5.67-2.78-1.62-6.54-2.43-11.27-2.43h-3.3c-1.27,0-2.3-1.03-2.3-2.3h0c0-1.27,1.03-2.3,2.3-2.3h85.46c1.27,0,2.3,1.03,2.3,2.3h0c0,1.27-1.03,2.3-2.3,2.3h-5.05c-4.9,0-8.84.87-11.83,2.62-2.16,1.16-3.86,3.16-5.11,5.98-.92,1.99-1.37,7.23-1.37,15.7v107.64c0,8.64.5,14.14,1.49,16.51,1,2.37,2.95,4.13,5.86,5.29,2.08.75,7.1,1.12,15.07,1.12h14.08c8.97,0,16.44-1.58,22.42-4.73,5.98-3.16,11.15-8.14,15.51-14.95,4.18-6.52,8.14-16.02,11.9-28.5.29-.97,1.19-1.65,2.21-1.65h.83c1.37,0,2.44,1.19,2.29,2.55Z"/>
  <path class="cls-1" d="M931.24,576.05h-56.64c-.92,0-1.75.55-2.12,1.39l-6.5,15.05c-2.33,5.48-3.49,10.01-3.49,13.58,0,4.73,1.91,8.22,5.73,10.46,2.06,1.22,6.88,2.16,14.46,2.82,1.19.1,2.11,1.1,2.11,2.29v.18c0,1.27-1.03,2.3-2.3,2.3h-51.58c-1.27,0-2.3-1.03-2.3-2.3v-.39c0-1.09.76-2.02,1.82-2.25,5.24-1.11,9.62-3.52,13.13-7.21,3.9-4.11,8.72-12.6,14.45-25.48l59.94-133.72c.29-.65.94-1.08,1.66-1.08h0c.72,0,1.38.43,1.67,1.09l60.44,137.45c5.81,13.12,10.59,21.39,14.33,24.79,2.45,2.23,5.77,3.65,9.97,4.26,1.14.16,1.99,1.13,1.99,2.28v.25c0,1.27-1.03,2.3-2.3,2.3h-77.12c-1.27,0-2.3-1.03-2.3-2.3h0c0-1.27,1.03-2.3,2.3-2.3h1.06c6.56,0,11.17-.91,13.83-2.74,1.83-1.33,2.74-3.24,2.74-5.73,0-1.5-.25-3.03-.75-4.61-.17-.75-1.41-3.86-3.74-9.34l-8.37-19.65c-.36-.85-1.2-1.4-2.12-1.4ZM927.13,563.61l-21.69-50.14c-.8-1.84-3.4-1.86-4.22-.02l-22.33,50.14c-.68,1.52.44,3.24,2.11,3.24h44.02c1.66,0,2.77-1.7,2.12-3.22Z"/>
</svg>